<mxfile host="Electron" agent="Mozilla/5.0 (Macintosh; Intel Mac OS X 10_15_7) AppleWebKit/537.36 (KHTML, like Gecko) draw.io/24.7.17 Chrome/128.0.6613.36 Electron/32.0.1 Safari/537.36" version="24.7.17">
  <diagram id="l-66y4AVhyTFW0OfiK2g" name="ページ1">
    <mxGraphModel dx="848" dy="606" grid="1" gridSize="10" guides="1" tooltips="1" connect="1" arrows="1" fold="1" page="1" pageScale="1" pageWidth="827" pageHeight="1169" math="1" shadow="0">
      <root>
        <mxCell id="0" />
        <mxCell id="1" parent="0" />
        <mxCell id="2" value="" style="rounded=1;whiteSpace=wrap;html=1;" parent="1" vertex="1">
          <mxGeometry x="50" y="220" width="90" height="130" as="geometry" />
        </mxCell>
        <mxCell id="3" value="$$\mathbb{F}_2^n$$" style="text;html=1;align=center;verticalAlign=middle;resizable=0;points=[];autosize=1;strokeColor=none;fillColor=none;" parent="1" vertex="1">
          <mxGeometry x="25" y="190" width="130" height="30" as="geometry" />
        </mxCell>
        <mxCell id="4" value="" style="ellipse;shape=cloud;whiteSpace=wrap;html=1;fillColor=#f8cecc;strokeColor=#b85450;" parent="1" vertex="1">
          <mxGeometry x="50" y="220" width="80" height="80" as="geometry" />
        </mxCell>
        <mxCell id="5" value="$$C(x)=1$$" style="text;html=1;align=center;verticalAlign=middle;resizable=0;points=[];autosize=1;strokeColor=none;fillColor=none;fontSize=12;" parent="1" vertex="1">
          <mxGeometry x="95" y="160" width="90" height="30" as="geometry" />
        </mxCell>
        <mxCell id="6" value="$$C(x)=0$$" style="text;html=1;align=center;verticalAlign=middle;resizable=0;points=[];autosize=1;strokeColor=none;fillColor=none;" parent="1" vertex="1">
          <mxGeometry x="50" y="310" width="90" height="30" as="geometry" />
        </mxCell>
        <mxCell id="7" value="" style="rounded=1;whiteSpace=wrap;html=1;fillColor=#dae8fc;strokeColor=#6c8ebf;" parent="1" vertex="1">
          <mxGeometry x="230" y="120" width="340" height="350" as="geometry" />
        </mxCell>
        <mxCell id="8" value="$$\pi \in \mathbb{F}_2^{2^n}$$" style="text;html=1;align=center;verticalAlign=middle;resizable=0;points=[];autosize=1;strokeColor=none;fillColor=none;" parent="1" vertex="1">
          <mxGeometry x="310" y="90" width="190" height="30" as="geometry" />
        </mxCell>
        <mxCell id="13" value="" style="shape=waypoint;sketch=0;size=6;pointerEvents=1;points=[];fillColor=none;resizable=0;rotatable=0;perimeter=centerPerimeter;snapToPoint=1;" parent="1" vertex="1">
          <mxGeometry x="85" y="270" width="20" height="20" as="geometry" />
        </mxCell>
        <mxCell id="16" value="" style="group" parent="1" vertex="1" connectable="0">
          <mxGeometry x="310" y="210" width="115" height="80" as="geometry" />
        </mxCell>
        <mxCell id="10" value="" style="ellipse;whiteSpace=wrap;html=1;aspect=fixed;fillColor=default;strokeColor=#6c8ebf;" parent="16" vertex="1">
          <mxGeometry width="80" height="80" as="geometry" />
        </mxCell>
        <mxCell id="11" value="" style="shape=waypoint;sketch=0;size=6;pointerEvents=1;points=[];fillColor=#dae8fc;resizable=0;rotatable=0;perimeter=centerPerimeter;snapToPoint=1;strokeColor=#FF0000;strokeWidth=3;" parent="16" vertex="1">
          <mxGeometry x="30" y="30" width="20" height="20" as="geometry" />
        </mxCell>
        <mxCell id="ZMNcrD23Gr3HNliZEn9E-31" value="$$\mathrm{Had}_n(x)$$" style="text;html=1;align=center;verticalAlign=middle;resizable=0;points=[];autosize=1;strokeColor=none;fillColor=none;" vertex="1" parent="16">
          <mxGeometry x="-35" y="10" width="150" height="30" as="geometry" />
        </mxCell>
        <mxCell id="18" value="" style="group" parent="1" vertex="1" connectable="0">
          <mxGeometry x="240" y="140" width="80" height="80" as="geometry" />
        </mxCell>
        <mxCell id="19" value="" style="ellipse;whiteSpace=wrap;html=1;aspect=fixed;fillColor=default;strokeColor=#6c8ebf;" parent="18" vertex="1">
          <mxGeometry width="80" height="80" as="geometry" />
        </mxCell>
        <mxCell id="20" value="" style="shape=waypoint;sketch=0;size=6;pointerEvents=1;points=[];fillColor=#dae8fc;resizable=0;rotatable=0;perimeter=centerPerimeter;snapToPoint=1;strokeColor=#FF0000;strokeWidth=3;" parent="18" vertex="1">
          <mxGeometry x="30" y="30" width="20" height="20" as="geometry" />
        </mxCell>
        <mxCell id="21" value="" style="group" parent="1" vertex="1" connectable="0">
          <mxGeometry x="290" y="330" width="80" height="80" as="geometry" />
        </mxCell>
        <mxCell id="22" value="" style="ellipse;whiteSpace=wrap;html=1;aspect=fixed;fillColor=default;strokeColor=#6c8ebf;" parent="21" vertex="1">
          <mxGeometry width="80" height="80" as="geometry" />
        </mxCell>
        <mxCell id="23" value="" style="shape=waypoint;sketch=0;size=6;pointerEvents=1;points=[];fillColor=#dae8fc;resizable=0;rotatable=0;perimeter=centerPerimeter;snapToPoint=1;strokeColor=#FF0000;strokeWidth=3;" parent="21" vertex="1">
          <mxGeometry x="30" y="30" width="20" height="20" as="geometry" />
        </mxCell>
        <mxCell id="24" value="" style="shape=waypoint;sketch=0;size=6;pointerEvents=1;points=[];fillColor=none;resizable=0;rotatable=0;perimeter=centerPerimeter;snapToPoint=1;" parent="1" vertex="1">
          <mxGeometry x="70" y="240" width="20" height="20" as="geometry" />
        </mxCell>
        <mxCell id="25" style="edgeStyle=none;html=1;entryX=0.75;entryY=-0.05;entryDx=0;entryDy=0;entryPerimeter=0;strokeWidth=0.5;" parent="1" source="24" target="20" edge="1">
          <mxGeometry relative="1" as="geometry" />
        </mxCell>
        <mxCell id="26" value="" style="shape=waypoint;sketch=0;size=6;pointerEvents=1;points=[];fillColor=none;resizable=0;rotatable=0;perimeter=centerPerimeter;snapToPoint=1;" parent="1" vertex="1">
          <mxGeometry x="90" y="250" width="20" height="20" as="geometry" />
        </mxCell>
        <mxCell id="27" style="edgeStyle=none;html=1;entryX=0.25;entryY=0.9;entryDx=0;entryDy=0;entryPerimeter=0;strokeWidth=0.5;" parent="1" source="26" target="11" edge="1">
          <mxGeometry relative="1" as="geometry" />
        </mxCell>
        <mxCell id="17" style="edgeStyle=none;html=1;entryX=0.95;entryY=0.25;entryDx=0;entryDy=0;entryPerimeter=0;strokeWidth=0.5;" parent="1" source="13" target="23" edge="1">
          <mxGeometry relative="1" as="geometry" />
        </mxCell>
        <mxCell id="28" value="Pr[拒否] \(\ge 0.99\)" style="text;html=1;align=center;verticalAlign=middle;resizable=0;points=[];autosize=1;strokeColor=none;fillColor=none;" parent="1" vertex="1">
          <mxGeometry x="430" y="360" width="130" height="30" as="geometry" />
        </mxCell>
        <mxCell id="30" style="edgeStyle=none;html=1;fillColor=#f8cecc;strokeColor=#b85450;endArrow=none;endFill=0;dashed=1;" parent="1" source="29" target="23" edge="1">
          <mxGeometry relative="1" as="geometry" />
        </mxCell>
        <mxCell id="29" value="Pr[受理] \(=1\)" style="text;html=1;align=center;verticalAlign=middle;resizable=0;points=[];autosize=1;strokeColor=none;fillColor=none;fontColor=#FF0000;" parent="1" vertex="1">
          <mxGeometry x="215" y="490" width="100" height="30" as="geometry" />
        </mxCell>
        <mxCell id="31" style="edgeStyle=none;html=1;entryX=0.625;entryY=0.2;entryDx=0;entryDy=0;entryPerimeter=0;dashed=1;fillColor=#f8cecc;strokeColor=#b85450;" parent="1" source="5" target="4" edge="1">
          <mxGeometry relative="1" as="geometry" />
        </mxCell>
      </root>
    </mxGraphModel>
  </diagram>
</mxfile>
